<svg id="Calque_1" data-name="Calque 1" xmlns="http://www.w3.org/2000/svg" xmlns:xlink="http://www.w3.org/1999/xlink" viewBox="0 0 114.33 86.23"><defs><style>.cls-1,.cls-4{fill:none;}.cls-2{clip-path:url(#clip-path);}.cls-3{fill:#e30613;}.cls-3,.cls-5{fill-rule:evenodd;}.cls-4{stroke:#e30613;stroke-miterlimit:2.61;stroke-width:1.84px;}.cls-5{fill:#fff;}</style><clipPath id="clip-path" transform="translate(-2.85 -2.31)"><rect class="cls-1" width="120.03" height="88.54"/></clipPath></defs><title>label rouge-logo</title><g class="cls-2"><path class="cls-3" d="M6.75,47.57c0,19.18,16.51,34,43.28,34S113.28,68,113.28,38.32,77.36,5.89,69.73,5.89c-31.35,0-63,15.59-63,41.68" transform="translate(-2.85 -2.31)"/><path class="cls-4" d="M3.77,47.78C3.77,68,21.2,83.63,49.47,83.63S116.26,69.35,116.26,38,78.33,3.77,70.27,3.77C37.17,3.77,3.77,20.24,3.77,47.78Z" transform="translate(-2.85 -2.31)"/><path class="cls-5" d="M10.4,42.08l.16,0c1.2.17,1.8.72,1.7,1.43s-.82,1.07-2,.92S8.57,43.72,8.67,43a1.08,1.08,0,0,1,1-.91l.2.65c-.35,0-.55.13-.58.37s.3.58,1.06.68,1.16,0,1.21-.36-.19-.52-.68-.59l-.08.6-.62-.09Z" transform="translate(-2.85 -2.31)"/><path class="cls-5" d="M11.47,41.14l-1.54-.61c.56.08,1.11.14,1.64.16Zm.93,1.16.16-.66L12,41.39l.16-.67.63,0,.16-.66L9.31,40l-.17.69Z" transform="translate(-2.85 -2.31)"/><path class="cls-5" d="M11.31,38.66l-.93-.31a.66.66,0,0,1,0-.09c.1-.29.28-.36.6-.25s.43.31.34.58l0,.07M13,39.93l.21-.63-1.39-.47,1.57-.06.23-.68-1.74.11c0-.39-.24-.65-.71-.81-.68-.23-1.06,0-1.31.74l-.23.67Z" transform="translate(-2.85 -2.31)"/><path class="cls-5" d="M12.88,36.88,11.47,36c.54.17,1.06.33,1.59.44Zm.71,1.3.27-.63-.53-.34.28-.63.62.14.27-.62-3.55-.72-.29.66Z" transform="translate(-2.85 -2.31)"/><path class="cls-5" d="M11.47,34.25l.33-.6,2,.31.74.17a9.28,9.28,0,0,1-1.17-.52l-1.19-.65.31-.56,3.11,1.7-.3.56-2.1-.3-.6-.15a9.37,9.37,0,0,1,1,.48l1.31.72-.31.55Z" transform="translate(-2.85 -2.31)"/><polygon class="cls-5" points="10.77 29.54 10.48 29.97 9.94 29.61 10.89 28.17 11.44 28.53 11.15 28.96 13.56 30.54 13.19 31.12 10.77 29.54"/><polygon class="cls-5" points="11.2 27.76 11.61 27.2 14.46 29.29 14.05 29.85 11.2 27.76"/><polygon class="cls-5" points="12.04 26.64 12.96 25.52 13.46 25.94 12.97 26.54 13.52 26.99 13.97 26.44 14.48 26.85 14.03 27.4 14.67 27.92 15.16 27.32 15.7 27.76 14.78 28.87 12.04 26.64"/><path class="cls-5" d="M19.39,27.19l0,.49.55,0-.07.08c-.24.24-.62.11-1.14-.4s-.74-1-.49-1.22.65-.1,1.19.44a2.54,2.54,0,0,1,.48.61Zm1.71.11-.53,0a1.94,1.94,0,0,0-.66-1.11c-.86-.85-1.64-1-2.18-.45s-.39,1.31.4,2.09,1.64,1,2.17.46a.94.94,0,0,0,.28-.48l.49,0Z" transform="translate(-2.85 -2.31)"/><path class="cls-5" d="M22.14,24.75a2.06,2.06,0,0,1,.49.71,1,1,0,0,1-.4,1,1,1,0,0,1-1.06.26,2.1,2.1,0,0,1-.64-.58l-1.46-1.67.52-.45,1.5,1.71c.3.34.47.5.75.26s.16-.41-.16-.77l-1.5-1.71.51-.44Z" transform="translate(-2.85 -2.31)"/><path class="cls-5" d="M23.15,24.14c-.28-.5-.55-1-.82-1.43.39.41.78.79,1.18,1.15Zm0,1.48.54-.42-.3-.55.55-.42.47.42.54-.42-2.77-2.32-.57.44Z" transform="translate(-2.85 -2.31)"/><polygon class="cls-5" points="20.23 18.93 20.78 18.54 22.43 20.85 23.07 20.41 23.47 20.96 22.28 21.8 20.23 18.93"/><polygon class="cls-5" points="21.74 17.88 22.33 17.49 24.28 20.43 23.7 20.82 21.74 17.88"/><polygon class="cls-5" points="23.5 17.52 23.05 17.8 22.71 17.24 24.19 16.33 24.53 16.89 24.09 17.16 25.6 19.61 25.02 19.97 23.5 17.52"/><path class="cls-5" d="M27.84,17.82l-.27.15-.06-1,.5-.28Zm-.43.61,1.26-.71.32.57-.68.39.35.62.62-.35.32.56-.61.35.41.72.68-.38.34.6-1.26.71Z" transform="translate(-2.85 -2.31)"/><path class="cls-5" d="M31.28,19.36a.76.76,0,0,0,.56,0,.34.34,0,0,0,.18-.48c-.11-.22-.32-.23-.59-.3a1.33,1.33,0,0,1-1-.69.91.91,0,0,1,.35-1.32,1.11,1.11,0,0,1,.6-.1l.28.56a1.15,1.15,0,0,0-.48.06.33.33,0,0,0-.15.46c.11.21.32.27.63.35a1.18,1.18,0,0,1,.94.65.94.94,0,0,1-.42,1.37,1,1,0,0,1-.6.11Z" transform="translate(-2.85 -2.31)"/><path class="cls-5" d="M34.77,17.19A2.07,2.07,0,0,1,35,18a1,1,0,0,1-.67.86,1,1,0,0,1-1.1-.05,2.13,2.13,0,0,1-.45-.74l-.93-2,.62-.29,1,2.07c.19.41.31.61.64.46s.27-.35.07-.78l-.95-2.06.62-.28Z" transform="translate(-2.85 -2.31)"/><path class="cls-5" d="M35.62,16.09l-.38-.91.06,0c.28-.12.47,0,.6.28a.43.43,0,0,1-.22.63l-.07,0m.15,2.1.62-.25-.56-1.35.15-.05a.94.94,0,0,0,.53-1.35c-.27-.64-.73-.8-1.43-.52l-.66.27Z" transform="translate(-2.85 -2.31)"/><path class="cls-5" d="M37,13.54l-.29.11.09-1,.54-.2Zm-.52.54,1.35-.51.23.61-.73.27.25.67.66-.25.23.61-.66.25.29.77.73-.28.25.64-1.35.51Z" transform="translate(-2.85 -2.31)"/><path class="cls-5" d="M39.51,14.61l-.32-.93.08,0c.29-.1.46,0,.57.32s0,.53-.26.62l-.07,0m0,2.1.63-.22-.49-1.38,1,1.2.68-.24-1.16-1.3a.84.84,0,0,0,.21-1.05c-.24-.67-.67-.82-1.38-.57l-.68.24Z" transform="translate(-2.85 -2.31)"/><polygon class="cls-5" points="37.73 10.32 38.4 10.11 39.49 13.46 38.82 13.68 37.73 10.32"/><polygon class="cls-5" points="39.02 9.91 40.41 9.5 40.6 10.12 39.85 10.34 40.05 11.03 40.73 10.82 40.92 11.45 40.24 11.65 40.48 12.44 41.23 12.22 41.43 12.88 40.04 13.29 39.02 9.91"/><path class="cls-5" d="M46.41,13.25a2.12,2.12,0,0,1,.13.85,1,1,0,0,1-.81.73,1,1,0,0,1-1.07-.23,2.12,2.12,0,0,1-.32-.8l-.58-2.14.66-.18L45,13.68c.12.44.21.65.55.56s.32-.3.2-.76l-.59-2.19.66-.18Z" transform="translate(-2.85 -2.31)"/><path class="cls-5" d="M47.42,12.3l-.23-1,.09,0c.3-.07.46,0,.53.37s0,.53-.32.59h-.08m-.18,2.1.65-.15-.34-1.42.88,1.3.71-.17-1-1.41a.84.84,0,0,0,.32-1c-.17-.69-.58-.89-1.32-.71l-.69.16Z" transform="translate(-2.85 -2.31)"/><polygon class="cls-5" points="45.81 8.13 47.23 7.83 47.37 8.47 46.6 8.63 46.75 9.33 47.44 9.19 47.58 9.82 46.88 9.96 47.06 10.78 47.82 10.61 47.96 11.29 46.55 11.58 45.81 8.13"/><path class="cls-3" d="M60.29,87.65v-2h.16c.71,0,1.06.28,1.06,1s-.34,1-1.06,1Zm-.93.79h1a2.35,2.35,0,0,0,1.48-.33,1.88,1.88,0,0,0,0-2.87,2.58,2.58,0,0,0-1.61-.34h-.83Z" transform="translate(-2.85 -2.31)"/><path class="cls-3" d="M64.09,84.53h-.36l.43-.85h.66Zm-1,.38h2.11v.78H64v.61H65.1v.76H64v.6h1.2v.79H63.05Z" transform="translate(-2.85 -2.31)"/><path class="cls-3" d="M68.29,86.1a1,1,0,0,0-.8-.43,1,1,0,0,0,0,2,1,1,0,0,0,.8-.43v1.05a1.94,1.94,0,0,1-.89.22,1.86,1.86,0,0,1,0-3.71,2,2,0,0,1,.89.22Z" transform="translate(-2.85 -2.31)"/><path class="cls-3" d="M69.7,86.58v-.93h.19c.39,0,.57.12.57.49s-.19.44-.58.44Zm-.88,1.86h.88V87.06l.79,1.38h1.06L70.61,87a.93.93,0,0,0,.77-1,1.06,1.06,0,0,0-.39-.87,1.75,1.75,0,0,0-1.14-.24h-1Z" transform="translate(-2.85 -2.31)"/><polygon class="cls-3" points="69.06 82.59 71.17 82.59 71.17 83.37 69.97 83.37 69.97 83.98 71.1 83.98 71.1 84.74 69.97 84.74 69.97 85.34 71.17 85.34 71.17 86.13 69.06 86.13 69.06 82.59"/><polygon class="cls-3" points="72.29 83.43 71.52 83.43 71.52 82.59 74 82.59 74 83.43 73.23 83.43 73.23 86.13 72.29 86.13 72.29 83.43"/><path class="cls-3" d="M79.75,87.65v-2h.16c.71,0,1.06.28,1.06,1s-.34,1-1.06,1Zm-.93.79h1a2.34,2.34,0,0,0,1.48-.33,1.88,1.88,0,0,0,0-2.87,2.58,2.58,0,0,0-1.61-.34h-.83Z" transform="translate(-2.85 -2.31)"/><path class="cls-3" d="M83.43,84.9v1.92c0,.63.11.9.6.9s.6-.37.6-1.12V84.9h.94V87c0,1.07-.44,1.53-1.54,1.53a1.53,1.53,0,0,1-1.23-.43,1.89,1.89,0,0,1-.3-1.29V84.9Z" transform="translate(-2.85 -2.31)"/><polygon class="cls-3" points="85.73 83.43 84.99 83.43 85.39 82.63 86.59 82.63 86.59 86.13 85.73 86.13 85.73 83.43"/><path class="cls-3" d="M90.53,88.44l1.55-1.88a1,1,0,0,0,.28-.57.4.4,0,0,0-.42-.42c-.29,0-.46.2-.46.56v0h-.83v0a1.19,1.19,0,0,1,1.28-1.29A1.13,1.13,0,0,1,93.19,86a1.48,1.48,0,0,1-.47,1l-.62.7h1.06v.75Z" transform="translate(-2.85 -2.31)"/><path class="cls-3" d="M94.2,87.56a.49.49,0,1,1-.47.49.48.48,0,0,1,.47-.49" transform="translate(-2.85 -2.31)"/><path class="cls-3" d="M96,86.7c0-.75.12-1.11.44-1.11s.43.37.43,1.11-.12,1.11-.43,1.11S96,87.45,96,86.7m1.74,0c0-1.2-.49-1.86-1.3-1.86s-1.31.67-1.31,1.83.51,1.83,1.31,1.83,1.3-.67,1.3-1.8" transform="translate(-2.85 -2.31)"/><path class="cls-3" d="M99,87.27v.06c0,.31.14.47.42.47a.4.4,0,0,0,.45-.44c0-.33-.16-.47-.51-.47h-.11v-.57h0c.32,0,.49-.15.49-.42a.36.36,0,0,0-.38-.37.35.35,0,0,0-.38.38h-.84c0-.65.46-1,1.26-1s1.13.37,1.13.91a.72.72,0,0,1-.55.73.8.8,0,0,1,.68.87,1.3,1.3,0,0,1-2.6-.06v0Z" transform="translate(-2.85 -2.31)"/><path class="cls-3" d="M101.74,87.56a.49.49,0,1,1-.47.49.48.48,0,0,1,.47-.49" transform="translate(-2.85 -2.31)"/><path class="cls-3" d="M104,86.65a.54.54,0,1,1,.52-.54.49.49,0,0,1-.52.54m0,.56-.81,1.23h1l.48-.75a2.94,2.94,0,0,0,.62-1.55A1.21,1.21,0,0,0,104,84.86a1.22,1.22,0,0,0-1.32,1.29,1,1,0,0,0,1,1.11,1.32,1.32,0,0,0,.36-.06" transform="translate(-2.85 -2.31)"/><path class="cls-3" d="M107,86.75a.54.54,0,1,1-.52.54.5.5,0,0,1,.52-.54m0-.56.81-1.25h-1l-.48.77a3,3,0,0,0-.62,1.55A1.21,1.21,0,0,0,107,88.54a1.22,1.22,0,0,0,1.32-1.29,1,1,0,0,0-1-1.12,1.32,1.32,0,0,0-.36.05" transform="translate(-2.85 -2.31)"/><path class="cls-5" d="M73.45,40.36c10.34-4,18.25-10.1,19.07-20S79.75,8.24,66.43,8.51l-.1-6.2-11,.07c-1,37.64-13,57.3-39.72,80.92l17.83.07C43.69,73.28,56.94,72.17,64,72.43l8.09-8.82A75.35,75.35,0,0,0,89.93,83.2l18,.08C93,71.38,81,59.65,73.45,40.36M66,20.67c6.45-.2,11.32-.58,11.14,3s-8.34,8.18-13.63,8.54c0,0,2-8,2.49-11.52M50.92,61.89A85.12,85.12,0,0,0,61,40.88a134.11,134.11,0,0,0,8,17.53,49.23,49.23,0,0,0-18.05,3.48" transform="translate(-2.85 -2.31)"/><path class="cls-5" d="M14.64,61.81a28.67,28.67,0,0,1-.14-6.24c1.67-1.92,2.9-4.09,4.5-8.9,2.5-7.49,1.36-10.47,1-10.64s-3.4,1.6-6.25,11a36.57,36.57,0,0,0-1.63,9c-.69.77-1.44,1.56-2.27,2.4,0,0-.31.31.32.69s.63.15,1-.11l.93-.92a15.46,15.46,0,0,0,1,5.38c.1.22.16.61.56.35a3.21,3.21,0,0,0,1.21-1.58s-.1,0-.23-.41M15.19,49c.82-4.83,3.08-9.19,3.35-9.16s.24,2.66-.71,6.5a18.41,18.41,0,0,1-3.12,6.43c.12-1.29.28-2.59.48-3.77" transform="translate(-2.85 -2.31)"/><path class="cls-5" d="M22.93,52.52l-.63-.45a2.53,2.53,0,0,1,.42-.76c.31-.39.46-1,.16-1.1a2.23,2.23,0,0,0-2.06.52,13.48,13.48,0,0,0-4.32,6.35c-1,3.22-.37,5.47.74,5.63s1.84-1,2.22-1.68c-.27,1.36.2,1.27,1,1.06s.78-.55.93-1c.37-1.29,1.55-7,1.7-7.81s-.19-.77-.19-.77m-3.5,7c-.88,1.75-1.53.56-1.44-.27a10,10,0,0,1,2.32-5.73c.62-.72.81,0,.79.56a13.51,13.51,0,0,1-1.68,5.44" transform="translate(-2.85 -2.31)"/><path class="cls-5" d="M29.77,49.24c-.71.22-1.73.46-1.73.46.64-2.89,1.55-7,1.55-7,.08-.7.19-1-1-.83s-1.15.34-1.3.94c-.61,3.09-3.21,14.83-3.63,16.66s.19,1.81.59,1.85,4.09.33,6.08-5.5,1-7.16-.61-6.57m-3,9.89c-.62.55-.73-.35-.66-.58s1.39-6.32,1.54-7c0,0,.14-.43.45-.46s.87.09.85,1c-.06,2.41-1.57,6.42-2.18,7" transform="translate(-2.85 -2.31)"/><path class="cls-5" d="M46,32.38c-1.51-.2-5,3.76-6.88,15A40.76,40.76,0,0,0,38.49,53a17,17,0,0,1-2.56,3.63c-2,2.08-3.31,1.26-2.73-1.21a10.29,10.29,0,0,0,4.05-4.88c.73-2.32.69-3.46,0-3.74s-1.83.82-2.18,1.28a16.76,16.76,0,0,0-3,5.35,13.15,13.15,0,0,0-.31,5.78c.34,1.15,2,1,2.71.36a26.1,26.1,0,0,0,4-4.21c.28,5.58,2.24,8.29,3.53,9.91.33.41,1.33.73,2-.48s.84-1.75.13-2.57a14.06,14.06,0,0,1-3.64-9.79,60.78,60.78,0,0,0,4.71-9.34c2.68-6.52,2.2-10.48.7-10.68M35.55,49.18c1-1.38,1.2-1.08.73.45A6.58,6.58,0,0,1,35,52.24c-.24.2-.63.56-1,.25a13.12,13.12,0,0,1,1.53-3.31M41,48.47l-.3.51c.15-1.43.4-3,.74-4.74a31.33,31.33,0,0,1,2.23-7.37c.28-.63,1.3-1.44,1.23.4-.11,3-1.38,6.94-3.9,11.21" transform="translate(-2.85 -2.31)"/><path class="cls-5" d="M89.58,49a3.33,3.33,0,0,0,2.26-1.78c-.43-.41-.29-1.88-.11-2.54S93.49,38.83,93.9,37c0,0-1.35.17-2.39.28,0,0-1.37,5.32-1.85,7-2.94,5.08-2.76,1.77-2.5.61.17-.76,1.44-5.35,2-7.07l-1.51-.17a13.33,13.33,0,0,1-3.55,2.22c-.17-1-.59-1.56-1.1-1.73-.73-.25-1.76.36-2.42,1.45-.91.11-2.16.32-3.74,4.66a11.93,11.93,0,0,0-.89,4.7A6.26,6.26,0,0,1,72.8,51c-1.25.27-.14,1.74.39,1.95s1.53-.11,3.37-2.12a.56.56,0,0,0,.14.13c.2.11,1.42,1.11,3.73-.14,2.84-1.53,3.65-7.63,3.76-9.5,0-.08,0-.15,0-.23a14.16,14.16,0,0,0,2-.6S84.67,44.84,84.34,46s-.72,3.29,0,4,2.81-.8,3.74-1.68c.09.44.49.78,1.46.64M81.81,45.3c-.6,2.56-1.84,4-2.55,3.85s-1-1.86-.38-3.82,1.85-4.17,2.55-3.92,1,1.33.38,3.89" transform="translate(-2.85 -2.31)"/><path class="cls-5" d="M107.78,50.67c-1.32-.25-4.15-2.38-4.3-6.4a25.91,25.91,0,0,0,5.27-5.88c2.1-3.39,2.62-5.49,1.66-6.11-1.36-.88-4.68,1.63-6.58,4.15a15.83,15.83,0,0,0-3.09,8c-1.08.65-2.17,1.23-3.29,1.86a6.09,6.09,0,0,1-1-5.61,5.64,5.64,0,0,1,2-2.39c.41-.26,1.19-.57,1,1.16.48-.22,2.07-1,2.07-1,.44-1.36.38-3.23-.55-3.59s-3.24.52-5.22,3-3.28,5.33-2,8.14c.31.68.63,1.3.92,1.87C91.5,50,88.06,52.48,86,57.2c-2.38,5.53,4.92,5.44,7.66,2.93,5.47-5,5.66-9.66,4.7-12.2.8-.49,1.56-1,2.29-1.49a9.54,9.54,0,0,0,4.8,6.88,2.46,2.46,0,0,0,3.11-.76c.55-.62.61-1.62-.8-1.89m-1.21-15.11c1.35-1.44,1.88-1.12,2-1s.88,1-1.79,4.54a20.52,20.52,0,0,1-3.22,3.41,10.69,10.69,0,0,1,3-6.93M95.66,53.29c-1,2.31-5,8.57-7.28,6.55s1.28-7.2,7.1-10.28a4.48,4.48,0,0,1,.18,3.73" transform="translate(-2.85 -2.31)"/></g></svg>