<svg xmlns="http://www.w3.org/2000/svg" xmlns:xlink="http://www.w3.org/1999/xlink" viewBox="0 0 153.07 155.14"><defs><style>.cls-1{fill:none;}.cls-2{isolation:isolate;}.cls-3{fill:#fff;}.cls-4{fill:#0f265c;}.cls-5{fill:#e30613;}.cls-6{clip-path:url(#clip-path);}.cls-7{fill:url(#linear-gradient);}.cls-8{clip-path:url(#clip-path-2);}.cls-9{fill:url(#linear-gradient-2);}.cls-10{mix-blend-mode:multiply;}.cls-11{clip-path:url(#clip-path-3);}.cls-12{clip-path:url(#clip-path-4);}.cls-13{fill:#a9a4a2;}.cls-14{fill:#e4271f;}</style><clipPath id="clip-path" transform="translate(-11.7 -10.7)"><path class="cls-1" d="M103.39,95.31a134.62,134.62,0,0,1,34.68,1.32c8.15-16.41,17-25.51,17-25.51-38.73-7.73-58-33.43-58-33.43.24,1.72,10.38,33.52,6.35,57.62"/></clipPath><linearGradient id="linear-gradient" x1="-0.01" y1="185.57" x2="0.99" y2="185.57" gradientTransform="matrix(0, 56.86, 56.86, 0, -10426.05, 39.51)" gradientUnits="userSpaceOnUse"><stop offset="0" stop-color="#e30613"/><stop offset="1" stop-color="#9c1006"/></linearGradient><clipPath id="clip-path-2" transform="translate(-11.7 -10.7)"><path class="cls-1" d="M19.75,72.07c15.73,13.85,22.87,38.76,22.87,38.76,11.87-5.36,17.89-6.77,27.5-9.59,11.37-33.51,3-60.36,3-60.36-23.75,24-40.28,27.36-53.33,31.19"/></clipPath><linearGradient id="linear-gradient-2" y1="185.62" x2="1" y2="185.62" gradientTransform="matrix(0, 67.9, 67.9, 0, -12552.21, 43.01)" gradientUnits="userSpaceOnUse"><stop offset="0" stop-color="#0056a4"/><stop offset="1" stop-color="#0f265c"/></linearGradient><clipPath id="clip-path-3" transform="translate(-11.7 -10.7)"><rect class="cls-1" x="99.2" y="51.93" width="14.95" height="38.5"/></clipPath><clipPath id="clip-path-4" transform="translate(-11.7 -10.7)"><rect class="cls-1" x="99.2" y="51.93" width="14.95" height="38.5"/></clipPath></defs><title>Volaile francaise Logo</title><g class="cls-2"><g id="Calque_1" data-name="Calque 1"><path class="cls-3" d="M11.89,65.44S52,64.79,94.39,10.7c0,0,2.15,37.79,70.38,61.93,0,0-38.44,35.87-27.51,93.21,0,0-54.89-33.24-101.93-5.84,0,0,14.42-61.58-23.45-94.57" transform="translate(-11.7 -10.7)"/><path class="cls-4" d="M92.6,16.07l-3.66,6.12s20.84,38.1,63.33,46.59c0,0-43.73-13.94-59.67-52.71" transform="translate(-11.7 -10.7)"/><path class="cls-4" d="M37.38,156.29,44,153.73S51.12,110.89,22.9,78c0,0,26.24,35.26,14.48,78.29" transform="translate(-11.7 -10.7)"/><path class="cls-4" d="M164.77,72.63l-6.93-1.71s-30.33,31.07-26,74.19c0,0,.54-45.9,33-72.48" transform="translate(-11.7 -10.7)"/><path class="cls-5" d="M131.8,160.93l-.57-7.11s-39.1-18.89-78.62-1.1c0,0,43.69-14.08,79.19,8.21" transform="translate(-11.7 -10.7)"/><path class="cls-4" d="M17.17,70.73C23.61,69.49,61.09,61,81.53,27.15c0,0-27.55,35.87-68.93,38.17-.59,0-.9.05-.9.05a65.41,65.41,0,0,1,5.47,5.36" transform="translate(-11.7 -10.7)"/><g class="cls-6"><rect class="cls-7" x="96.63" y="37.29" width="58.85" height="59.74" transform="translate(-12.61 -8.95) rotate(-0.79)"/></g><g class="cls-8"><rect class="cls-9" x="19.22" y="40.42" width="62.79" height="70.88" transform="translate(-12.84 -9.92) rotate(-0.87)"/></g><g class="cls-10"><g class="cls-11"><g class="cls-12"><path class="cls-13" d="M104.24,90.43s6.43-7.15,6.92-25.59c-.4-3.07.85-4.49,1.39-5.69s1.81-2.42,1.57-3.31-2.89-2.1-5.34-1.77a11.06,11.06,0,0,0-2.77.65,13.37,13.37,0,0,0-6.82-2.79c8,19.31,5,26.22,5,38.5" transform="translate(-11.7 -10.7)"/></g></g></g><path class="cls-4" d="M57.24,123.36h-.67a1.58,1.58,0,0,1-1.48-.89,24.69,24.69,0,0,1-3.54-9.36h1.57a1.63,1.63,0,0,1,1.65,1.29,24.72,24.72,0,0,0,1.74,5.16,26.16,26.16,0,0,0,2-6.46h1.42a1.17,1.17,0,0,1,1.26,1.17,10.52,10.52,0,0,1-.62,2.24,31,31,0,0,1-3.32,6.87" transform="translate(-11.7 -10.7)"/><path class="cls-4" d="M67.24,123.46a4.83,4.83,0,0,1-4.94-5.17c0-3.28,1.93-5.45,5.22-5.45A4.89,4.89,0,0,1,72.44,118c0,3.36-1.88,5.45-5.2,5.47m0-8.36c-1.39,0-2.14,1.2-2.13,2.91,0,2.15.84,3.17,2.38,3.17,1.28,0,2.14-1.07,2.13-2.94,0-2.22-.81-3.14-2.38-3.14" transform="translate(-11.7 -10.7)"/><path class="cls-4" d="M79.27,123.32H78.09c-2.6,0-3.71-1.29-3.72-3.84l0-6.42h1.19c1.11,0,1.63.57,1.63,1.72v4.5c0,1.32.36,1.71,1.63,1.71h.45a6.68,6.68,0,0,0,2.16-.31h.08v1c0,1-.62,1.69-2.23,1.69" transform="translate(-11.7 -10.7)"/><path class="cls-4" d="M90.62,123.17c-1,0-1.56-.29-1.74-1.2-.08-.36-.16-.76-.28-1.19H85.06c-.22.74-.39,1.76-.51,2.39H83.41a1.15,1.15,0,0,1-1.31-1.25c0-1.47,1.93-7.06,3.7-8.9h1.1a2.24,2.24,0,0,1,2,1.06,28.43,28.43,0,0,1,3,9.08Zm-3.77-7.61a17.49,17.49,0,0,0-1.18,3H88a18.78,18.78,0,0,0-1.16-3" transform="translate(-11.7 -10.7)"/><path class="cls-4" d="M94.75,123.16a1.41,1.41,0,0,1-1.31-1.57l0-8.58H95a1.3,1.3,0,0,1,1.25,1.3l0,8.84Z" transform="translate(-11.7 -10.7)"/><path class="cls-4" d="M103.53,123.26h-1.18c-2.6,0-3.71-1.29-3.72-3.85V113H99.8c1.11,0,1.63.57,1.64,1.72v4.5c0,1.32.36,1.72,1.64,1.72h.45a7,7,0,0,0,2.16-.31h.07v.95c0,1-.62,1.69-2.23,1.69" transform="translate(-11.7 -10.7)"/><path class="cls-4" d="M112.07,123.24h-1.18c-2.59,0-3.71-1.29-3.72-3.85V113h1.19c1.11,0,1.63.57,1.63,1.72v4.5c0,1.32.36,1.71,1.64,1.71h.45a6.84,6.84,0,0,0,2.16-.32h.07v1c0,1-.62,1.68-2.23,1.68" transform="translate(-11.7 -10.7)"/><path class="cls-4" d="M120.82,123.24h-1.16c-2.68,0-4.17-1.34-4.18-4.15v-1.71a20.2,20.2,0,0,1,.17-2.74,1.77,1.77,0,0,1,2-1.68h5.58v.66a1.5,1.5,0,0,1-1.7,1.62h-3.11a17,17,0,0,0-.1,1.72h4v1c0,.73-.54,1.15-1.54,1.15h-2.42v.37c0,1.09.36,1.47,1.78,1.47h.75a9.23,9.23,0,0,0,2.39-.29v1.08c0,.93-.57,1.49-2.38,1.49" transform="translate(-11.7 -10.7)"/><path class="cls-4" d="M52.14,129.41H49.42v1.9H53c0,.4,0,.87,0,.87a1.2,1.2,0,0,1-1.21,1.26H49.48v3.83H48.13a1.31,1.31,0,0,1-1.5-1.38l0-6.93c0-1.25.69-1.84,2.06-1.84h5v1a1.37,1.37,0,0,1-1.48,1.31" transform="translate(-11.7 -10.7)"/><path class="cls-4" d="M62.11,137.32a1.84,1.84,0,0,1-1.84-1.07l-.76-1.64c-.4-.86-.68-1-1.36-1.11l-.44,0v3.81H56.64a1.57,1.57,0,0,1-1.74-1.6l0-8.26a12.72,12.72,0,0,1,3.07-.45h1.14c2.2,0,3.76,1.19,3.76,3A2.77,2.77,0,0,1,61,132.7c.49.22.75.59,1.14,1.39l.78,1.64a7.86,7.86,0,0,0,.72,1.24v.07a3.62,3.62,0,0,1-1.52.27m-3.84-8.15a5.07,5.07,0,0,0-.56.06v2.24a9.19,9.19,0,0,0,1.13,0,1.15,1.15,0,0,0,1.2-1.18,1,1,0,0,0-1.19-1.16Z" transform="translate(-11.7 -10.7)"/><path class="cls-4" d="M72.8,137.22c-1,0-1.55-.28-1.73-1.2-.07-.37-.16-.77-.28-1.19H67.25c-.22.74-.4,1.77-.51,2.4H65.6A1.15,1.15,0,0,1,64.29,136c0-1.47,1.93-7.06,3.7-8.91h1.1a2.26,2.26,0,0,1,2,1.05,28.5,28.5,0,0,1,3,9.08ZM69,129.61a18.18,18.18,0,0,0-1.18,3h2.34a19.49,19.49,0,0,0-1.16-3" transform="translate(-11.7 -10.7)"/><path class="cls-4" d="M83.34,137.2c-1.16,0-2.11-.49-3-2.14l-1.74-3.12c-.33-.57-.51-1-.51-1v6.25H76.92a1.53,1.53,0,0,1-1.59-1.55l0-8.59h1.36a3.36,3.36,0,0,1,3.2,2.08l1.25,2.44.66,1.24v-5.76H83a1.37,1.37,0,0,1,1.42,1.3l0,8.84Z" transform="translate(-11.7 -10.7)"/><path class="cls-4" d="M104,137.14c-1,0-1.56-.28-1.74-1.2-.08-.37-.17-.77-.29-1.19H98.48c-.22.74-.4,1.77-.52,2.4H96.82a1.15,1.15,0,0,1-1.3-1.25c0-1.47,1.93-7.06,3.7-8.91h1.1a2.26,2.26,0,0,1,2,1,28.76,28.76,0,0,1,3,9.08Zm-3.77-7.6a17.73,17.73,0,0,0-1.18,3h2.34a19.43,19.43,0,0,0-1.16-3" transform="translate(-11.7 -10.7)"/><path class="cls-4" d="M108.16,137.14a1.41,1.41,0,0,1-1.31-1.56l0-8.58h1.58a1.3,1.3,0,0,1,1.25,1.3l0,8.84Z" transform="translate(-11.7 -10.7)"/><path class="cls-4" d="M115.29,137.36c-2.25,0-3.46-.84-3.47-2.3v-1h.08a4.78,4.78,0,0,0,3.15,1c1.29,0,1.72-.31,1.72-1s-.57-.82-2.12-1.13c-2.23-.43-3.09-1.24-3.09-2.79,0-1.81,1.66-3.44,4.25-3.44s3.49,1.13,3.49,2.17V130h-.07a4.43,4.43,0,0,0-3-1c-1.39,0-1.87.37-1.87.94s.19.71,2.08,1.09c2.11.42,3.12,1.27,3.12,2.84,0,2.11-1.55,3.47-4.28,3.47" transform="translate(-11.7 -10.7)"/><path class="cls-4" d="M126.58,137.23h-1.16c-2.69,0-4.17-1.34-4.17-4.15v-1.7a20.08,20.08,0,0,1,.18-2.74,1.76,1.76,0,0,1,2-1.69H129v.66a1.5,1.5,0,0,1-1.7,1.63h-3.11A16.78,16.78,0,0,0,124,131h4v1c0,.73-.55,1.15-1.54,1.15h-2.41v.37c0,1.09.36,1.47,1.77,1.47h.75a9.41,9.41,0,0,0,2.39-.29v1.08c0,.92-.57,1.48-2.38,1.49" transform="translate(-11.7 -10.7)"/><path class="cls-4" d="M91.76,129.21a4,4,0,0,1,2.92,1h.07v-1c0-1.43-1.19-2.41-3.2-2.41a5.25,5.25,0,0,0-5.49,5.42,5.06,5.06,0,0,0,4.05,5.06l-.9,1.82,0,0h0l0,.08,1.62.59,1.11-2.38,0,0c1.71-.16,2.8-1.09,2.8-2.29v-1h-.07a4.34,4.34,0,0,1-2.82,1A2.77,2.77,0,0,1,88.89,132a2.69,2.69,0,0,1,2.87-2.74" transform="translate(-11.7 -10.7)"/><path class="cls-14" d="M82.28,109.35c-.79,0-3.88-5.12-4.07-6-.07-.36.07-.5.2-.56a.73.73,0,0,1,.32-.05c1.11,0,8.77,1.24,9.23,1.87a.3.3,0,0,1,.06.27c-.08.27-.4.29-.71.29a49.27,49.27,0,0,1-5.25-.7c3,1.64,5.45,3.1,5.49,3.45a.32.32,0,0,1-.08.26.35.35,0,0,1-.26.09c-.66,0-4.9-2.21-6.62-3.13,1.92,3.16,2,4.06,1.88,4.17a.45.45,0,0,1-.2.06" transform="translate(-11.7 -10.7)"/><path class="cls-14" d="M90.38,103.09c-.7,0-3.82-3.31-4-3.84a.3.3,0,0,1,.15-.36.67.67,0,0,1,.32,0c.4,0,8.89.69,9.21,1.19a.28.28,0,0,1,0,.27c-.08.17-.27.2-.68.2-.77,0-3.06-.22-4.47-.36,3.7,1.21,4.67,1.75,4.69,1.91a.3.3,0,0,1-.14.27.4.4,0,0,1-.21.06A62.66,62.66,0,0,1,89,100.52c.86.91,1.77,2,1.72,2.28a.34.34,0,0,1-.21.26.44.44,0,0,1-.15,0" transform="translate(-11.7 -10.7)"/><path class="cls-3" d="M82,98.07h-.18c-12.69,0-20.9-7.82-22.7-21.34C57.95,67.93,55.32,65,55.3,65a2.81,2.81,0,0,1,1.87-4.9h.1A16.27,16.27,0,0,1,62,61a2.84,2.84,0,0,1,.44-1.65,2.79,2.79,0,0,1,2.36-1.29,1.42,1.42,0,0,1,.3,0c5.73.6,9.19,3.44,12.14,6.81a31.51,31.51,0,0,0,4,4.1c3.51,2.78,10,1.88,12.22,2.09A2.82,2.82,0,0,1,96,73.43a50.48,50.48,0,0,0,1.89-5.62,12.7,12.7,0,0,1-2.83.34,9.24,9.24,0,0,1-3.62-.69,8.72,8.72,0,0,1-4.09-3.19h0a4.26,4.26,0,0,1-2.44-.72,2.81,2.81,0,0,1-.87-3.63c.55-1,5.6-10.07,13.15-10.09a9.14,9.14,0,0,1,1,0,13.11,13.11,0,0,1,7.14,3.33,11.38,11.38,0,0,1,2.81-.44c2.47-.15,5,1.24,5.2,2.15s-1.17,2.05-1.81,3.2-2,2.49-1.79,5.57c.88,8.11-2.88,19.33-8.38,25.58A25.55,25.55,0,0,1,82,98.07Z" transform="translate(-11.7 -10.7)"/><path class="cls-5" d="M105.21,56.55s-2.8-3.47-6.79-3.88C92,52,87.08,61.25,87.08,61.25s1.11.77,2.65-.62c0,0-.46,2.64,3.38,4.24s8.65-1.38,8.65-1.38c4.19,14.9-12.64,27.32-24.49,22a12,12,0,0,1-6.43-11.07c11,3.59,23-.56,23-.56S85,75.09,80.09,71.19s-7.81-9.61-14.72-10.34A11.83,11.83,0,0,1,67,66.66a16.09,16.09,0,0,0-9.22-3.76s3.78,4.17,4.73,13.47C63.95,91,73.7,95.28,82.54,95.26h0c17.77-.29,26.22-19.68,24.92-31.34A10.52,10.52,0,0,1,110,56.19l.33-.34a6.07,6.07,0,0,0-5.13.7M93.6,59.14s5-5.27,5.63.42Z" transform="translate(-11.7 -10.7)"/></g></g></svg>