<svg id="Calque_1" data-name="Calque 1" xmlns="http://www.w3.org/2000/svg" xmlns:xlink="http://www.w3.org/1999/xlink" viewBox="0 0 79.22 110.87"><defs><style>.cls-1{fill:none;}.cls-2,.cls-4{fill:#36ad64;}.cls-3{clip-path:url(#clip-path);}.cls-4,.cls-5{fill-rule:evenodd;}.cls-5{fill:#fff;}</style><clipPath id="clip-path" transform="translate(0 0)"><rect class="cls-1" width="79.22" height="110.87"/></clipPath></defs><title>BIO LOGO</title><rect class="cls-2" x="0.42" y="15.87" width="78.77" height="69.38"/><rect class="cls-2" x="0.42" y="109.28" width="78.77" height="1.59"/><rect class="cls-2" x="0.42" width="78.8" height="1.59"/><g class="cls-3"><path class="cls-4" d="M5.59,7.56A2.1,2.1,0,0,0,4,6.72,2.38,2.38,0,0,0,1.76,9.29,2.33,2.33,0,0,0,4,11.87,2,2,0,0,0,5.59,11v1.71A3.3,3.3,0,0,1,4,13.2,3.68,3.68,0,0,1,.41,9.3,3.73,3.73,0,0,1,4,5.39a3.05,3.05,0,0,1,1.61.46Z" transform="translate(0 0)"/><polygon class="cls-4" points="14.24 6.83 14.24 8.48 16.56 8.48 16.56 9.75 14.24 9.75 14.24 11.76 16.65 11.76 16.65 13.03 12.94 13.03 12.94 5.56 16.65 5.56 16.65 6.83 14.24 6.83"/><path class="cls-4" d="M25.36,9V6.73h.4c.82,0,1.26.38,1.26,1.11S26.58,9,25.74,9Zm1.48.89a2,2,0,0,0,1.53-2.12A2.09,2.09,0,0,0,26,5.56H24.06V13h1.3V10h.17l1.82,3H29Z" transform="translate(0 0)"/><polygon class="cls-4" points="36.77 13.03 36.77 6.83 35.28 6.83 35.28 5.56 39.59 5.56 39.59 6.83 38.08 6.83 38.08 13.03 36.77 13.03"/><rect class="cls-2" x="46.57" y="5.56" width="1.3" height="7.47"/><polygon class="cls-4" points="56.85 6.83 56.85 8.48 58.96 8.48 58.96 9.75 56.85 9.75 56.85 13.03 55.55 13.03 55.55 5.56 59.1 5.56 59.1 6.83 56.85 6.83"/><rect class="cls-2" x="66.39" y="5.56" width="1.3" height="7.47"/><path class="cls-4" d="M76.67,6.83V8.48H79V9.75H76.67v2h2.4V13H75.37V5.56h3.71V6.83Zm.45-2-.53-.55L78,2.83l.83.76Z" transform="translate(0 0)"/><path class="cls-4" d="M4.33,92.68H2.41l1-2.69Zm.41,1.18.57,1.58h1.4L3.89,87.8h-1L0,95.43H1.39L2,93.85Z" transform="translate(0 0)"/><path class="cls-4" d="M15.47,91.43v.24c0,2.41-1.27,3.93-3.27,3.93a3.58,3.58,0,0,1-3.52-3.86,3.64,3.64,0,0,1,3.56-3.94,3.14,3.14,0,0,1,2.88,1.76L14,90.23a1.9,1.9,0,0,0-1.76-1.11A2.37,2.37,0,0,0,10,91.73a2.33,2.33,0,0,0,2.19,2.54A1.7,1.7,0,0,0,14,92.7H12.41V91.43Z" transform="translate(0 0)"/><path class="cls-4" d="M19.75,91.39V89.13h.4c.82,0,1.26.38,1.26,1.11s-.45,1.15-1.28,1.15Zm1.48.89a2,2,0,0,0,1.53-2.12A2.09,2.09,0,0,0,20.39,88H18.45v7.47h1.31v-3h.17l1.82,3h1.61Z" transform="translate(0 0)"/><rect class="cls-2" x="25.99" y="87.95" width="1.3" height="7.47"/><path class="cls-4" d="M35.44,90a2.09,2.09,0,0,0-1.64-.84,2.38,2.38,0,0,0-2.19,2.57,2.33,2.33,0,0,0,2.25,2.58,2,2,0,0,0,1.58-.82v1.71a3.3,3.3,0,0,1-1.64.44,3.68,3.68,0,0,1-3.54-3.89,3.73,3.73,0,0,1,3.57-3.91,3.08,3.08,0,0,1,1.61.46Z" transform="translate(0 0)"/><path class="cls-4" d="M39.72,92.24a2.47,2.47,0,0,0,.21,1.33,1.35,1.35,0,0,0,2.36,0,2.46,2.46,0,0,0,.21-1.33V88H43.8v4.57a3.39,3.39,0,0,1-.49,2,2.79,2.79,0,0,1-4.4,0,3.38,3.38,0,0,1-.49-2V88h1.3Z" transform="translate(0 0)"/><polygon class="cls-4" points="48.41 94.16 50.47 94.16 50.47 95.43 47.1 95.43 47.1 87.96 48.41 87.96 48.41 94.16"/><polygon class="cls-4" points="53.56 95.43 53.56 89.23 52.07 89.23 52.07 87.96 56.38 87.96 56.38 89.23 54.87 89.23 54.87 95.43 53.56 95.43"/><path class="cls-4" d="M60.29,92.24a2.47,2.47,0,0,0,.21,1.33,1.35,1.35,0,0,0,2.36,0,2.48,2.48,0,0,0,.21-1.33V88h1.3v4.57a3.39,3.39,0,0,1-.49,2,2.79,2.79,0,0,1-4.4,0,3.36,3.36,0,0,1-.49-2V88h1.3Z" transform="translate(0 0)"/><path class="cls-4" d="M69,91.39V89.13h.41c.82,0,1.26.38,1.26,1.11s-.45,1.15-1.28,1.15Zm1.49.89A2,2,0,0,0,72,90.16,2.09,2.09,0,0,0,69.61,88H67.67v7.47H69v-3h.18l1.82,3h1.61Z" transform="translate(0 0)"/><polygon class="cls-4" points="76.52 89.23 76.52 90.88 78.83 90.88 78.83 92.14 76.52 92.14 76.52 94.16 78.93 94.16 78.93 95.43 75.22 95.43 75.22 87.96 78.93 87.96 78.93 89.23 76.52 89.23"/><path class="cls-4" d="M2,102.65v-1.94h.4a.88.88,0,0,1,1,1c0,.65-.34,1-1,1ZM.7,107H3a2,2,0,0,0,2.26-2.12A1.71,1.71,0,0,0,3.87,103a1.56,1.56,0,0,0,.74-1.51A2.07,2.07,0,0,0,4,100a2.42,2.42,0,0,0-1.65-.45H.7ZM2,105.83v-2.07h.5c1,0,1.38.31,1.38,1.06s-.43,1-1.31,1Z" transform="translate(0 0)"/><rect class="cls-2" x="8.7" y="99.53" width="1.3" height="7.47"/><path class="cls-4" d="M17.06,100.7a2.6,2.6,0,0,1,0,5.14,2.6,2.6,0,0,1,0-5.14m0-1.33a3.73,3.73,0,0,0-3.59,3.92,3.68,3.68,0,0,0,3.59,3.88,3.92,3.92,0,0,0,0-7.8" transform="translate(0 0)"/><polygon class="cls-4" points="25.41 105.74 27.47 105.74 27.47 107.01 24.11 107.01 24.11 99.54 25.41 99.54 25.41 105.74"/><path class="cls-4" d="M33.73,100.7a2.6,2.6,0,0,1,0,5.14,2.6,2.6,0,0,1,0-5.14m0-1.33a3.73,3.73,0,0,0-3.59,3.92,3.6,3.6,0,1,0,3.59-3.92" transform="translate(0 0)"/><path class="cls-4" d="M47.23,103v.24c0,2.41-1.27,3.93-3.27,3.93a3.58,3.58,0,0,1-3.52-3.86A3.64,3.64,0,0,1,44,99.37a3.14,3.14,0,0,1,2.88,1.76l-1.15.68A1.9,1.9,0,0,0,44,100.7a2.37,2.37,0,0,0-2.18,2.61A2.33,2.33,0,0,0,44,105.85a1.7,1.7,0,0,0,1.76-1.58H44.16V103Z" transform="translate(0 0)"/><rect class="cls-2" x="50.7" y="99.53" width="1.3" height="7.47"/><path class="cls-4" d="M60.07,104l-1.35.12L60,105.54a1.44,1.44,0,0,1-1,.3,2.36,2.36,0,0,1-2.22-2.59,2.38,2.38,0,0,1,2.27-2.55,2.42,2.42,0,0,1,2.24,2.56,2.29,2.29,0,0,1-.52,1.58Zm2.75,3.14L61.73,106a4,4,0,0,0,.95-2.68,3.61,3.61,0,1,0-3.61,3.9,3.05,3.05,0,0,0,1.88-.56l.55.68Z" transform="translate(0 0)"/><path class="cls-4" d="M67.39,103.82a2.48,2.48,0,0,0,.21,1.33,1.35,1.35,0,0,0,2.36,0,2.46,2.46,0,0,0,.21-1.33V99.54h1.3v4.57a3.41,3.41,0,0,1-.49,2,2.79,2.79,0,0,1-4.4,0,3.38,3.38,0,0,1-.49-2V99.54h1.3Z" transform="translate(0 0)"/><polygon class="cls-4" points="76.58 100.81 76.58 102.46 78.89 102.46 78.89 103.72 76.58 103.72 76.58 105.74 78.99 105.74 78.99 107.01 75.28 107.01 75.28 99.54 78.99 99.54 78.99 100.81 76.58 100.81"/><path class="cls-5" d="M47.37,37.41c9.76,0,15.3,4.24,15.3,11.3s-4.51,9.23-4.51,9.23,8.36,2,8.36,11.86c0,11.48-13.24,11.61-13.24,11.61H41.83v-44Zm0,5.18V56.9s2.53,0,4.22-.19,6.1-1.13,6-7.15-4.22-6.78-7.23-7.06Zm0,18.92V76.39H53c1.31,0,8.07-.85,8.17-7.34s-7.33-7.72-9-7.72-4.79.19-4.79.19" transform="translate(0 0)"/><path class="cls-5" d="M37.6,81.41H32.06V70.93H13.19a31.47,31.47,0,0,0-1.5,10.26H6.34c0-11.3,6.22-31.12,23.19-42.65,6.39-3.29,8.07,1.41,8.07,2.83ZM32.06,43.15C17.23,55.3,15.26,65.47,15.26,65.47H32.06Z" transform="translate(0 0)"/><path class="cls-5" d="M49.62,18.54S59.53,22.78,57.7,35c0,0,5.63-7.53,14.74-5.65,0,0-4,11.37-15.92,7.63-11.36-3.58-8.64-16.57-6.9-18.41" transform="translate(0 0)"/></g></svg>